{
    "asset" : {
        "generator" : "Khronos glTF Blender I/O v1.1.46",
        "version" : "2.0"
    },
    "scene" : 0,
    "scenes" : [
        {
            "name" : "Scene",
            "nodes" : [
                0,
                1,
                2
            ]
        }
    ],
    "nodes" : [
        {
            "name" : "Light",
            "rotation" : [
                0.16907575726509094,
                0.7558803558349609,
                -0.27217137813568115,
                0.570947527885437
            ],
            "translation" : [
                4.076245307922363,
                5.903861999511719,
                -1.0054539442062378
            ]
        },
        {
            "name" : "Camera",
            "rotation" : [
                0.483536034822464,
                0.33687159419059753,
                -0.20870360732078552,
                0.7804827094078064
            ],
            "translation" : [
                7.358891487121582,
                4.958309173583984,
                6.925790786743164
            ]
        },
        {
            "mesh" : 0,
            "name" : "Icosphere",
            "scale" : [
                4.387953281402588,
                4.387953281402588,
                4.387953281402588
            ]
        }
    ],
    "animations" : [
        {
            "channels" : [
                {
                    "sampler" : 0,
                    "target" : {
                        "node" : 2,
                        "path" : "weights"
                    }
                }
            ],
            "name" : "KeyAction",
            "samplers" : [
                {
                    "input" : 6,
                    "interpolation" : "LINEAR",
                    "output" : 7
                }
            ]
        }
    ],
    "materials" : [
        {
            "doubleSided" : true,
            "emissiveFactor" : [
                0,
                0,
                0
            ],
            "name" : "Material.003",
            "pbrMetallicRoughness" : {
                "baseColorFactor" : [
                    0.06680836528539658,
                    0.06680836528539658,
                    0.06680836528539658,
                    1
                ],
                "metallicFactor" : 0,
                "roughnessFactor" : 0.5272727012634277
            }
        }
    ],
    "meshes" : [
        {
            "extras" : {
                "targetNames" : [
                    "Key 1"
                ]
            },
            "name" : "Icosphere.003",
            "primitives" : [
                {
                    "attributes" : {
                        "POSITION" : 0,
                        "NORMAL" : 1,
                        "TEXCOORD_0" : 2
                    },
                    "indices" : 3,
                    "material" : 0,
                    "targets" : [
                        {
                            "POSITION" : 4,
                            "NORMAL" : 5
                        }
                    ]
                }
            ],
            "weights" : [
                0
            ]
        }
    ],
    "accessors" : [
        {
            "bufferView" : 0,
            "componentType" : 5126,
            "count" : 20768,
            "max" : [
                1.1027634143829346,
                1.0942504405975342,
                1.030422329902649
            ],
            "min" : [
                -1.0877214670181274,
                -1.0942503213882446,
                -1.0683990716934204
            ],
            "type" : "VEC3"
        },
        {
            "bufferView" : 1,
            "componentType" : 5126,
            "count" : 20768,
            "type" : "VEC3"
        },
        {
            "bufferView" : 2,
            "componentType" : 5126,
            "count" : 20768,
            "type" : "VEC2"
        },
        {
            "bufferView" : 3,
            "componentType" : 5123,
            "count" : 31152,
            "type" : "SCALAR"
        },
        {
            "bufferView" : 4,
            "componentType" : 5126,
            "count" : 20768,
            "max" : [
                0.039454370737075806,
                0.058165132999420166,
                0.07187637686729431
            ],
            "min" : [
                -0.05966740846633911,
                -0.041773080825805664,
                -0.053810715675354004
            ],
            "type" : "VEC3"
        },
        {
            "bufferView" : 5,
            "componentType" : 5126,
            "count" : 20768,
            "type" : "VEC3"
        },
        {
            "bufferView" : 6,
            "componentType" : 5126,
            "count" : 81,
            "max" : [
                3.3333333333333335
            ],
            "min" : [
                0
            ],
            "type" : "SCALAR"
        },
        {
            "bufferView" : 7,
            "componentType" : 5126,
            "count" : 81,
            "type" : "SCALAR"
        }
    ],
    "bufferViews" : [
        {
            "buffer" : 0,
            "byteLength" : 249216,
            "byteOffset" : 0
        },
        {
            "buffer" : 0,
            "byteLength" : 249216,
            "byteOffset" : 249216
        },
        {
            "buffer" : 0,
            "byteLength" : 166144,
            "byteOffset" : 498432
        },
        {
            "buffer" : 0,
            "byteLength" : 62304,
            "byteOffset" : 664576
        },
        {
            "buffer" : 0,
            "byteLength" : 249216,
            "byteOffset" : 726880
        },
        {
            "buffer" : 0,
            "byteLength" : 249216,
            "byteOffset" : 976096
        },
        {
            "buffer" : 0,
            "byteLength" : 324,
            "byteOffset" : 1225312
        },
        {
            "buffer" : 0,
            "byteLength" : 324,
            "byteOffset" : 1225636
        }
    ],
    "buffers" : [
        {
            "byteLength" : 1225960,
            "uri" : "data:application/octet-stream;base64,"
        }
    ]
}
